{
  "accessors": [
    {
      "bufferView": 2,
      "componentType": 5126,
      "count": 20,
      "max": [
        1.3051949739456177,
        -13.073631286621094,
        9.5252838134765625
      ],
      "min": [
        -1.3052200078964233,
        -13.195354461669922,
        6.659423828125
      ],
      "type": "VEC3"
    },
    {
      "bufferView": 2,
      "byteOffset": 240,
      "componentType": 5126,
      "count": 20,
      "max": [
        1,
        -0,
        1
      ],
      "min": [
        -1,
        -1,
        -1
      ],
      "type": "VEC3"
    },
    {
      "bufferView": 3,
      "componentType": 5126,
      "count": 20,
      "max": [
        0,
        1,
        1,
        1
      ],
      "min": [
        0,
        -1,
        0,
        1
      ],
      "type": "VEC4"
    },
    {
      "bufferView": 1,
      "componentType": 5126,
      "count": 20,
      "max": [
        0.99599999189376831,
        0.91450202465057373
      ],
      "min": [
        0.0040000001899898052,
        0.0040000001899898052
      ],
      "type": "VEC2"
    },
    {
      "bufferView": 0,
      "componentType": 5125,
      "count": 30,
      "max": [
        19
      ],
      "min": [
        0
      ],
      "type": "SCALAR"
    },
    {
      "bufferView": 2,
      "byteOffset": 480,
      "componentType": 5126,
      "count": 6,
      "max": [
        -2.7946469783782959,
        -29.134372711181641,
        3.7189939022064209
      ],
      "min": [
        -2.7946760654449463,
        -29.134433746337891,
        3.7189788818359375
      ],
      "type": "VEC3"
    },
    {
      "bufferView": 2,
      "byteOffset": 552,
      "componentType": 5126,
      "count": 6,
      "max": [
        0.4203866720199585,
        0.40068104863166809,
        0.81408214569091797
      ],
      "min": [
        -0.4203866720199585,
        -0.40068104863166809,
        -0.81408214569091797
      ],
      "type": "VEC3"
    },
    {
      "bufferView": 3,
      "byteOffset": 320,
      "componentType": 5126,
      "count": 6,
      "max": [
        0.90734505653381348,
        0.1856415867805481,
        0.37717655301094055,
        1
      ],
      "min": [
        -0.90734505653381348,
        -0.1856415867805481,
        -0.37717655301094055,
        1
      ],
      "type": "VEC4"
    },
    {
      "bufferView": 1,
      "byteOffset": 160,
      "componentType": 5126,
      "count": 6,
      "max": [
        0.0074999998323619366,
        0.0074999998323619366
      ],
      "min": [
        0.0074999998323619366,
        0.0074999998323619366
      ],
      "type": "VEC2"
    },
    {
      "bufferView": 0,
      "byteOffset": 120,
      "componentType": 5125,
      "count": 6,
      "max": [
        5
      ],
      "min": [
        0
      ],
      "type": "SCALAR"
    },
    {
      "bufferView": 2,
      "byteOffset": 624,
      "componentType": 5126,
      "count": 5225,
      "max": [
        4.1204071044921875,
        65.283088684082031,
        14.430023193359375
      ],
      "min": [
        -4.626406192779541,
        -62.948966979980469,
        -15.623855590820312
      ],
      "type": "VEC3"
    },
    {
      "bufferView": 2,
      "byteOffset": 63324,
      "componentType": 5126,
      "count": 5225,
      "max": [
        1,
        1,
        1
      ],
      "min": [
        -1,
        -1,
        -1
      ],
      "type": "VEC3"
    },
    {
      "bufferView": 3,
      "byteOffset": 416,
      "componentType": 5126,
      "count": 5225,
      "max": [
        1,
        1,
        1,
        1
      ],
      "min": [
        -1,
        -1,
        -1,
        -1
      ],
      "type": "VEC4"
    },
    {
      "bufferView": 1,
      "byteOffset": 208,
      "componentType": 5126,
      "count": 5225,
      "max": [
        0.99228698015213013,
        0.9906650185585022
      ],
      "min": [
        -0.99250000715255737,
        0.0074999998323619366
      ],
      "type": "VEC2"
    },
    {
      "bufferView": 0,
      "byteOffset": 144,
      "componentType": 5125,
      "count": 13344,
      "max": [
        5224
      ],
      "min": [
        0
      ],
      "type": "SCALAR"
    },
    {
      "bufferView": 2,
      "byteOffset": 126024,
      "componentType": 5126,
      "count": 5139,
      "max": [
        3.9600470066070557,
        50.662185668945312,
        14.43841552734375
      ],
      "min": [
        -4.9961090087890625,
        -62.949443817138672,
        -17.804702758789062
      ],
      "type": "VEC3"
    },
    {
      "bufferView": 2,
      "byteOffset": 187692,
      "componentType": 5126,
      "count": 5139,
      "max": [
        1,
        1,
        1
      ],
      "min": [
        -1,
        -1,
        -1
      ],
      "type": "VEC3"
    },
    {
      "bufferView": 3,
      "byteOffset": 84016,
      "componentType": 5126,
      "count": 5139,
      "max": [
        1,
        1,
        1,
        1
      ],
      "min": [
        -1,
        -1,
        -1,
        -1
      ],
      "type": "VEC4"
    },
    {
      "bufferView": 1,
      "byteOffset": 42008,
      "componentType": 5126,
      "count": 5139,
      "max": [
        0.99201899766921997,
        0.98907697200775146
      ],
      "min": [
        -0.9929320216178894,
        0.0074999998323619366
      ],
      "type": "VEC2"
    },
    {
      "bufferView": 0,
      "byteOffset": 53520,
      "componentType": 5125,
      "count": 14646,
      "max": [
        5138
      ],
      "min": [
        0
      ],
      "type": "SCALAR"
    },
    {
      "bufferView": 2,
      "byteOffset": 249360,
      "componentType": 5126,
      "count": 4520,
      "max": [
        4.1204071044921875,
        51.286155700683594,
        8.5724334716796875
      ],
      "min": [
        -5.115023136138916,
        -61.080211639404297,
        -17.043533325195312
      ],
      "type": "VEC3"
    },
    {
      "bufferView": 2,
      "byteOffset": 303600,
      "componentType": 5126,
      "count": 4520,
      "max": [
        1,
        1,
        1
      ],
      "min": [
        -1,
        -1,
        -1
      ],
      "type": "VEC3"
    },
    {
      "bufferView": 3,
      "byteOffset": 166240,
      "componentType": 5126,
      "count": 4520,
      "max": [
        1,
        1,
        1,
        1
      ],
      "min": [
        -1,
        -1,
        -1,
        -1
      ],
      "type": "VEC4"
    },
    {
      "bufferView": 1,
      "byteOffset": 83120,
      "componentType": 5126,
      "count": 4520,
      "max": [
        0.98843902349472046,
        0.98561501502990723
      ],
      "min": [
        -0.99250000715255737,
        0.0074999998323619366
      ],
      "type": "VEC2"
    },
    {
      "bufferView": 0,
      "byteOffset": 112104,
      "componentType": 5125,
      "count": 14778,
      "max": [
        4519
      ],
      "min": [
        0
      ],
      "type": "SCALAR"
    },
    {
      "bufferView": 2,
      "byteOffset": 357840,
      "componentType": 5126,
      "count": 4284,
      "max": [
        3.534930944442749,
        65.283088684082031,
        9.927947998046875
      ],
      "min": [
        -4.9892158508300781,
        -62.948905944824219,
        -8.0647430419921875
      ],
      "type": "VEC3"
    },
    {
      "bufferView": 2,
      "byteOffset": 409248,
      "componentType": 5126,
      "count": 4284,
      "max": [
        1,
        1,
        1
      ],
      "min": [
        -1,
        -1,
        -1
      ],
      "type": "VEC3"
    },
    {
      "bufferView": 3,
      "byteOffset": 238560,
      "componentType": 5126,
      "count": 4284,
      "max": [
        1,
        1,
        1,
        1
      ],
      "min": [
        -1,
        -1,
        -1,
        -1
      ],
      "type": "VEC4"
    },
    {
      "bufferView": 1,
      "byteOffset": 119280,
      "componentType": 5126,
      "count": 4284,
      "max": [
        0.99250000715255737,
        0.98133397102355957
      ],
      "min": [
        -0.63393098115921021,
        0.0074999998323619366
      ],
      "type": "VEC2"
    },
    {
      "bufferView": 0,
      "byteOffset": 171216,
      "componentType": 5125,
      "count": 14394,
      "max": [
        4283
      ],
      "min": [
        0
      ],
      "type": "SCALAR"
    },
    {
      "bufferView": 2,
      "byteOffset": 460656,
      "componentType": 5126,
      "count": 2819,
      "max": [
        3.9600470066070557,
        44.728675842285156,
        6.639617919921875
      ],
      "min": [
        -5.1918869018554688,
        -65.283073425292969,
        -18.335220336914062
      ],
      "type": "VEC3"
    },
    {
      "bufferView": 2,
      "byteOffset": 494484,
      "componentType": 5126,
      "count": 2819,
      "max": [
        1,
        1,
        1
      ],
      "min": [
        -1,
        -1,
        -1
      ],
      "type": "VEC3"
    },
    {
      "bufferView": 3,
      "byteOffset": 307104,
      "componentType": 5126,
      "count": 2819,
      "max": [
        1,
        1,
        1,
        1
      ],
      "min": [
        -1,
        -1,
        -1,
        -1
      ],
      "type": "VEC4"
    },
    {
      "bufferView": 1,
      "byteOffset": 153552,
      "componentType": 5126,
      "count": 2819,
      "max": [
        0.99105501174926758,
        0.98239898681640625
      ],
      "min": [
        -0.99250000715255737,
        0.0074999998323619366
      ],
      "type": "VEC2"
    },
    {
      "bufferView": 0,
      "byteOffset": 228792,
      "componentType": 5125,
      "count": 8646,
      "max": [
        2818
      ],
      "min": [
        0
      ],
      "type": "SCALAR"
    },
    {
      "bufferView": 2,
      "byteOffset": 528312,
      "componentType": 5126,
      "count": 4029,
      "max": [
        2.2094419002532959,
        5.0143661499023438,
        18.335235595703125
      ],
      "min": [
        -2.2094419002532959,
        -13.576438903808594,
        7.6477360725402832
      ],
      "type": "VEC3"
    },
    {
      "bufferView": 2,
      "byteOffset": 576660,
      "componentType": 5126,
      "count": 4029,
      "max": [
        1,
        1,
        1
      ],
      "min": [
        -1,
        -1,
        -1
      ],
      "type": "VEC3"
    },
    {
      "bufferView": 3,
      "byteOffset": 352208,
      "componentType": 5126,
      "count": 4029,
      "max": [
        1,
        0.99999666213989258,
        1,
        1
      ],
      "min": [
        -1,
        -0.99999982118606567,
        -1,
        -1
      ],
      "type": "VEC4"
    },
    {
      "bufferView": 1,
      "byteOffset": 176104,
      "componentType": 5126,
      "count": 4029,
      "max": [
        0.99218398332595825,
        0.91451197862625122
      ],
      "min": [
        -0.99250000715255737,
        0.0074999998323619366
      ],
      "type": "VEC2"
    },
    {
      "bufferView": 0,
      "byteOffset": 263376,
      "componentType": 5125,
      "count": 13599,
      "max": [
        4028
      ],
      "min": [
        0
      ],
      "type": "SCALAR"
    },
    {
      "bufferView": 2,
      "byteOffset": 625008,
      "componentType": 5126,
      "count": 829,
      "max": [
        2.4182701110839844,
        -7.2717671394348145,
        16.625228881835938
      ],
      "min": [
        -2.4182720184326172,
        -12.308917999267578,
        11.7886962890625
      ],
      "type": "VEC3"
    },
    {
      "bufferView": 2,
      "byteOffset": 634956,
      "componentType": 5126,
      "count": 829,
      "max": [
        1,
        0.99997550249099731,
        1
      ],
      "min": [
        -1,
        -0.97558486461639404,
        -1
      ],
      "type": "VEC3"
    },
    {
      "bufferView": 3,
      "byteOffset": 416672,
      "componentType": 5126,
      "count": 829,
      "max": [
        0.99999850988388062,
        0.99982267618179321,
        0.58279979228973389,
        1
      ],
      "min": [
        -0.9999995231628418,
        -0.99999541044235229,
        -0.97513782978057861,
        1
      ],
      "type": "VEC4"
    },
    {
      "bufferView": 1,
      "byteOffset": 208336,
      "componentType": 5126,
      "count": 829,
      "max": [
        0.99250000715255737,
        0.88750702142715454
      ],
      "min": [
        0.0074999998323619366,
        0.0074999998323619366
      ],
      "type": "VEC2"
    },
    {
      "bufferView": 0,
      "byteOffset": 317772,
      "componentType": 5125,
      "count": 3456,
      "max": [
        828
      ],
      "min": [
        0
      ],
      "type": "SCALAR"
    }
  ],
  "asset": {
    "extras": {
      "author": "McCarthy3D (https://sketchfab.com/joshuawatt811)",
      "license": "CC-BY-4.0 (http://creativecommons.org/licenses/by/4.0/)",
      "source": "https://sketchfab.com/3d-models/halo-reach-dmr-45d9947bd2a54105a81aa3e2d5ae0ca4",
      "title": "Halo Reach - DMR"
    },
    "generator": "Sketchfab-9.28.2",
    "version": "2.0"
  },
  "bufferViews": [
    {
      "buffer": 0,
      "byteLength": 331596,
      "byteOffset": 0,
      "name": "floatBufferViews",
      "target": 34963
    },
    {
      "buffer": 0,
      "byteLength": 214968,
      "byteOffset": 331596,
      "byteStride": 8,
      "name": "floatBufferViews",
      "target": 34962
    },
    {
      "buffer": 0,
      "byteLength": 644904,
      "byteOffset": 546564,
      "byteStride": 12,
      "name": "floatBufferViews",
      "target": 34962
    },
    {
      "buffer": 0,
      "byteLength": 429936,
      "byteOffset": 1191468,
      "byteStride": 16,
      "name": "floatBufferViews",
      "target": 34962
    }
  ],
  "buffers": [
    {
      "byteLength": 1621404,
      "uri": "scene.bin"
    }
  ],
  "images": [
    {
      "uri": "textures/Ammo_Count_Shader_baseColor.png"
    },
    {
      "uri": "textures/Ammo_Count_Shader_metallicRoughness.png"
    },
    {
      "uri": "textures/Ammo_Count_Shader_emissive.png"
    },
    {
      "uri": "textures/Ammo_Count_Shader_normal.png"
    },
    {
      "uri": "textures/DMR_Gun_Shader_baseColor.png"
    },
    {
      "uri": "textures/DMR_Gun_Shader_metallicRoughness.png"
    },
    {
      "uri": "textures/DMR_Gun_Shader_normal.png"
    },
    {
      "uri": "textures/DMR_Scope_Shader_baseColor.png"
    },
    {
      "uri": "textures/DMR_Scope_Shader_metallicRoughness.png"
    },
    {
      "uri": "textures/DMR_Scope_Shader_emissive.png"
    },
    {
      "uri": "textures/DMR_Scope_Shader_normal.png"
    }
  ],
  "materials": [
    {
      "alphaMode": "BLEND",
      "doubleSided": false,
      "emissiveFactor": [
        1,
        1,
        1
      ],
      "emissiveTexture": {
        "index": 2,
        "texCoord": 0
      },
      "name": "Ammo_Count_Shader",
      "normalTexture": {
        "index": 3,
        "scale": 1,
        "texCoord": 0
      },
      "occlusionTexture": {
        "index": 1,
        "strength": 1,
        "texCoord": 0
      },
      "pbrMetallicRoughness": {
        "baseColorFactor": [
          1,
          1,
          1,
          1
        ],
        "baseColorTexture": {
          "index": 0,
          "texCoord": 0
        },
        "metallicFactor": 1,
        "metallicRoughnessTexture": {
          "index": 1,
          "texCoord": 0
        },
        "roughnessFactor": 1
      }
    },
    {
      "doubleSided": false,
      "name": "DMR_Gun_Shader",
      "normalTexture": {
        "index": 6,
        "scale": 1,
        "texCoord": 0
      },
      "occlusionTexture": {
        "index": 5,
        "strength": 1,
        "texCoord": 0
      },
      "pbrMetallicRoughness": {
        "baseColorFactor": [
          1,
          1,
          1,
          1
        ],
        "baseColorTexture": {
          "index": 4,
          "texCoord": 0
        },
        "metallicFactor": 1,
        "metallicRoughnessTexture": {
          "index": 5,
          "texCoord": 0
        },
        "roughnessFactor": 1
      }
    },
    {
      "doubleSided": false,
      "emissiveFactor": [
        1,
        1,
        1
      ],
      "emissiveTexture": {
        "index": 9,
        "texCoord": 0
      },
      "name": "DMR_Scope_Shader",
      "normalTexture": {
        "index": 10,
        "scale": 1,
        "texCoord": 0
      },
      "occlusionTexture": {
        "index": 8,
        "strength": 1,
        "texCoord": 0
      },
      "pbrMetallicRoughness": {
        "baseColorFactor": [
          1,
          1,
          1,
          1
        ],
        "baseColorTexture": {
          "index": 7,
          "texCoord": 0
        },
        "metallicFactor": 1,
        "metallicRoughnessTexture": {
          "index": 8,
          "texCoord": 0
        },
        "roughnessFactor": 1
      }
    }
  ],
  "meshes": [
    {
      "primitives": [
        {
          "attributes": {
            "NORMAL": 1,
            "POSITION": 0,
            "TANGENT": 2,
            "TEXCOORD_0": 3
          },
          "indices": 4,
          "material": 0,
          "mode": 4
        }
      ]
    },
    {
      "primitives": [
        {
          "attributes": {
            "NORMAL": 6,
            "POSITION": 5,
            "TANGENT": 7,
            "TEXCOORD_0": 8
          },
          "indices": 9,
          "material": 1,
          "mode": 4
        }
      ]
    },
    {
      "primitives": [
        {
          "attributes": {
            "NORMAL": 11,
            "POSITION": 10,
            "TANGENT": 12,
            "TEXCOORD_0": 13
          },
          "indices": 14,
          "material": 1,
          "mode": 4
        }
      ]
    },
    {
      "primitives": [
        {
          "attributes": {
            "NORMAL": 16,
            "POSITION": 15,
            "TANGENT": 17,
            "TEXCOORD_0": 18
          },
          "indices": 19,
          "material": 1,
          "mode": 4
        }
      ]
    },
    {
      "primitives": [
        {
          "attributes": {
            "NORMAL": 21,
            "POSITION": 20,
            "TANGENT": 22,
            "TEXCOORD_0": 23
          },
          "indices": 24,
          "material": 1,
          "mode": 4
        }
      ]
    },
    {
      "primitives": [
        {
          "attributes": {
            "NORMAL": 26,
            "POSITION": 25,
            "TANGENT": 27,
            "TEXCOORD_0": 28
          },
          "indices": 29,
          "material": 1,
          "mode": 4
        }
      ]
    },
    {
      "primitives": [
        {
          "attributes": {
            "NORMAL": 31,
            "POSITION": 30,
            "TANGENT": 32,
            "TEXCOORD_0": 33
          },
          "indices": 34,
          "material": 1,
          "mode": 4
        }
      ]
    },
    {
      "primitives": [
        {
          "attributes": {
            "NORMAL": 36,
            "POSITION": 35,
            "TANGENT": 37,
            "TEXCOORD_0": 38
          },
          "indices": 39,
          "material": 2,
          "mode": 4
        }
      ]
    },
    {
      "primitives": [
        {
          "attributes": {
            "NORMAL": 41,
            "POSITION": 40,
            "TANGENT": 42,
            "TEXCOORD_0": 43
          },
          "indices": 44,
          "material": 2,
          "mode": 4
        }
      ]
    }
  ],
  "nodes": [
    {
      "children": [
        1
      ],
      "name": "RootNode (gltf orientation matrix)",
      "rotation": [
        -0.70710678118654746,
        -0,
        -0,
        0.70710678118654757
      ]
    },
    {
      "children": [
        2
      ],
      "matrix": [
        0.027839077636599541,
        0,
        0,
        0,
        0,
        0.027839077636599541,
        0,
        0,
        0,
        0,
        0.027839077636599541,
        0,
        0,
        0,
        0,
        1
      ],
      "name": "RootNode (model correction matrix)"
    },
    {
      "children": [
        3,
        4,
        5,
        6,
        7,
        8,
        9,
        10,
        11
      ],
      "name": "Halo DMR.obj.cleaner.materialmerger.gles"
    },
    {
      "mesh": 0,
      "name": ""
    },
    {
      "mesh": 1,
      "name": ""
    },
    {
      "mesh": 2,
      "name": ""
    },
    {
      "mesh": 3,
      "name": ""
    },
    {
      "mesh": 4,
      "name": ""
    },
    {
      "mesh": 5,
      "name": ""
    },
    {
      "mesh": 6,
      "name": ""
    },
    {
      "mesh": 7,
      "name": ""
    },
    {
      "mesh": 8,
      "name": ""
    }
  ],
  "samplers": [
    {
      "magFilter": 9729,
      "minFilter": 9987,
      "wrapS": 10497,
      "wrapT": 10497
    }
  ],
  "scene": 0,
  "scenes": [
    {
      "name": "OSG_Scene",
      "nodes": [
        0
      ]
    }
  ],
  "textures": [
    {
      "sampler": 0,
      "source": 0
    },
    {
      "sampler": 0,
      "source": 1
    },
    {
      "sampler": 0,
      "source": 2
    },
    {
      "sampler": 0,
      "source": 3
    },
    {
      "sampler": 0,
      "source": 4
    },
    {
      "sampler": 0,
      "source": 5
    },
    {
      "sampler": 0,
      "source": 6
    },
    {
      "sampler": 0,
      "source": 7
    },
    {
      "sampler": 0,
      "source": 8
    },
    {
      "sampler": 0,
      "source": 9
    },
    {
      "sampler": 0,
      "source": 10
    }
  ]
}

