{
  "accessors": [
    {
      "bufferView": 2,
      "componentType": 5126,
      "count": 869,
      "max": [
        0.4364199936389923,
        0.7793949842453003,
        0.296656996011734
      ],
      "min": [
        0.06960070133209229,
        0.41257598996162415,
        0.20819200575351715
      ],
      "type": "VEC3"
    },
    {
      "bufferView": 2,
      "byteOffset": 10428,
      "componentType": 5126,
      "count": 869,
      "max": [
        1.0,
        1.0,
        1.0
      ],
      "min": [
        -1.0,
        -1.0,
        -5.485039196173602e-07
      ],
      "type": "VEC3"
    },
    {
      "bufferView": 3,
      "componentType": 5126,
      "count": 869,
      "max": [
        1.0,
        1.0,
        1.0,
        1.0
      ],
      "min": [
        -1.0,
        -1.0,
        -1.0,
        1.0
      ],
      "type": "VEC4"
    },
    {
      "bufferView": 2,
      "byteOffset": 20856,
      "componentType": 5126,
      "count": 869,
      "max": [
        1.0,
        1.0,
        1.0
      ],
      "min": [
        0.0,
        0.0,
        0.0
      ],
      "type": "VEC3"
    },
    {
      "bufferView": 1,
      "componentType": 5126,
      "count": 869,
      "max": [
        0.9270129799842834,
        0.8550559878349304
      ],
      "min": [
        0.3013690114021301,
        0.006327140145003796
      ],
      "type": "VEC2"
    },
    {
      "bufferView": 0,
      "componentType": 5125,
      "count": 2838,
      "type": "SCALAR"
    },
    {
      "bufferView": 2,
      "byteOffset": 31284,
      "componentType": 5126,
      "count": 1042,
      "max": [
        -0.32024699449539185,
        0.7095360159873962,
        0.16863900423049927
      ],
      "min": [
        -0.66184401512146,
        -0.5122439861297607,
        -0.11641500145196915
      ],
      "type": "VEC3"
    },
    {
      "bufferView": 2,
      "byteOffset": 43788,
      "componentType": 5126,
      "count": 1042,
      "max": [
        0.9996645450592041,
        0.996087908744812,
        0.999911367893219
      ],
      "min": [
        -0.9998918771743774,
        -0.995618999004364,
        -0.9999735355377197
      ],
      "type": "VEC3"
    },
    {
      "bufferView": 3,
      "byteOffset": 13904,
      "componentType": 5126,
      "count": 1042,
      "max": [
        0.9993162751197815,
        0.9789059162139893,
        0.9874740839004517,
        1.0
      ],
      "min": [
        -0.9997690320014954,
        -0.9780598282814026,
        -0.9870159029960632,
        1.0
      ],
      "type": "VEC4"
    },
    {
      "bufferView": 1,
      "byteOffset": 6952,
      "componentType": 5126,
      "count": 1042,
      "max": [
        0.995947003364563,
        0.9956009984016418
      ],
      "min": [
        0.6032329797744751,
        0.6276950240135193
      ],
      "type": "VEC2"
    },
    {
      "bufferView": 0,
      "byteOffset": 11352,
      "componentType": 5125,
      "count": 4488,
      "type": "SCALAR"
    },
    {
      "bufferView": 2,
      "byteOffset": 56292,
      "componentType": 5126,
      "count": 884,
      "max": [
        -0.11928000301122665,
        0.17216500639915466,
        0.037019599229097366
      ],
      "min": [
        -0.5697219967842102,
        -1.0,
        -0.296656996011734
      ],
      "type": "VEC3"
    },
    {
      "bufferView": 2,
      "byteOffset": 66900,
      "componentType": 5126,
      "count": 884,
      "max": [
        0.9985098838806152,
        0.9960963726043701,
        0.9999911189079285
      ],
      "min": [
        -0.9987223744392395,
        -0.9961017370223999,
        -0.9999400973320007
      ],
      "type": "VEC3"
    },
    {
      "bufferView": 3,
      "byteOffset": 30576,
      "componentType": 5126,
      "count": 884,
      "max": [
        0.9985342621803284,
        0.9987589716911316,
        0.9999344348907471,
        1.0
      ],
      "min": [
        -0.9986882209777832,
        -0.9957583546638489,
        -0.999936044216156,
        1.0
      ],
      "type": "VEC4"
    },
    {
      "bufferView": 1,
      "byteOffset": 15288,
      "componentType": 5126,
      "count": 884,
      "max": [
        1.0,
        14.0
      ],
      "min": [
        0.0,
        -7.423400227857258e-10
      ],
      "type": "VEC2"
    },
    {
      "bufferView": 0,
      "byteOffset": 29304,
      "componentType": 5125,
      "count": 4824,
      "type": "SCALAR"
    },
    {
      "bufferView": 2,
      "byteOffset": 77508,
      "componentType": 5126,
      "count": 100,
      "max": [
        0.043246399611234665,
        0.8114060163497925,
        0.09928429871797562
      ],
      "min": [
        -0.46429699659347534,
        0.6532040238380432,
        0.03894919902086258
      ],
      "type": "VEC3"
    },
    {
      "bufferView": 2,
      "byteOffset": 78708,
      "componentType": 5126,
      "count": 100,
      "max": [
        0.9995431303977966,
        0.9995431303977966,
        1.0
      ],
      "min": [
        -0.9995431303977966,
        -0.9995431303977966,
        -1.0
      ],
      "type": "VEC3"
    },
    {
      "bufferView": 3,
      "byteOffset": 44720,
      "componentType": 5126,
      "count": 100,
      "max": [
        0.999695360660553,
        0.997657060623169,
        0.3456253111362457,
        1.0
      ],
      "min": [
        -0.9995430707931519,
        -0.9200445413589478,
        -0.41771069169044495,
        1.0
      ],
      "type": "VEC4"
    },
    {
      "bufferView": 1,
      "byteOffset": 22360,
      "componentType": 5126,
      "count": 100,
      "max": [
        0.9938910007476807,
        0.6319659948348999
      ],
      "min": [
        0.813073992729187,
        0.4580709934234619
      ],
      "type": "VEC2"
    },
    {
      "bufferView": 0,
      "byteOffset": 48600,
      "componentType": 5125,
      "count": 270,
      "type": "SCALAR"
    },
    {
      "bufferView": 2,
      "byteOffset": 79908,
      "componentType": 5126,
      "count": 2703,
      "max": [
        0.66184401512146,
        1.0,
        0.2671220004558563
      ],
      "min": [
        -0.1511099934577942,
        -0.37557199597358704,
        -0.2911069989204407
      ],
      "type": "VEC3"
    },
    {
      "bufferView": 2,
      "byteOffset": 112344,
      "componentType": 5126,
      "count": 2703,
      "max": [
        1.0,
        1.0,
        1.0
      ],
      "min": [
        -1.0,
        -1.0,
        -1.0
      ],
      "type": "VEC3"
    },
    {
      "bufferView": 3,
      "byteOffset": 46320,
      "componentType": 5126,
      "count": 2703,
      "max": [
        1.0,
        1.0,
        1.0,
        1.0
      ],
      "min": [
        -1.0,
        -1.0,
        -1.0,
        1.0
      ],
      "type": "VEC4"
    },
    {
      "bufferView": 2,
      "byteOffset": 144780,
      "componentType": 5126,
      "count": 2703,
      "max": [
        1.0,
        1.0,
        1.0
      ],
      "min": [
        0.0,
        0.0,
        0.0
      ],
      "type": "VEC3"
    },
    {
      "bufferView": 1,
      "byteOffset": 23160,
      "componentType": 5126,
      "count": 2703,
      "max": [
        0.9956099987030029,
        0.9943580031394958
      ],
      "min": [
        0.004066369961947203,
        0.0036323799286037683
      ],
      "type": "VEC2"
    },
    {
      "bufferView": 1,
      "byteOffset": 44784,
      "componentType": 5126,
      "count": 2703,
      "max": [
        8.657340049743652,
        16.807600021362305
      ],
      "min": [
        -8.602190017700195,
        -15.0
      ],
      "type": "VEC2"
    },
    {
      "bufferView": 0,
      "byteOffset": 49680,
      "componentType": 5125,
      "count": 11352,
      "type": "SCALAR"
    }
  ],
  "asset": {
    "extras": {
      "author": "comp_ot (https://sketchfab.com/comp_ot)",
      "license": "CC-BY-NC-4.0 (http://creativecommons.org/licenses/by-nc/4.0/)",
      "source": "https://sketchfab.com/3d-models/old-payphone-a93177cd6d5f4fb2930b9c542549ca87",
      "title": "Old payphone"
    },
    "generator": "Sketchfab-12.65.0",
    "version": "2.0"
  },
  "bufferViews": [
    {
      "buffer": 0,
      "byteLength": 95088,
      "name": "floatBufferViews",
      "target": 34963
    },
    {
      "buffer": 0,
      "byteLength": 66408,
      "byteOffset": 95088,
      "byteStride": 8,
      "name": "floatBufferViews",
      "target": 34962
    },
    {
      "buffer": 0,
      "byteLength": 177216,
      "byteOffset": 161496,
      "byteStride": 12,
      "name": "floatBufferViews",
      "target": 34962
    },
    {
      "buffer": 0,
      "byteLength": 89568,
      "byteOffset": 338712,
      "byteStride": 16,
      "name": "floatBufferViews",
      "target": 34962
    }
  ],
  "buffers": [
    {
      "byteLength": 428280,
      "uri": "scene.bin"
    }
  ],
  "images": [
    {
      "uri": "textures/mat_payphone_a_baseColor.jpeg"
    },
    {
      "uri": "textures/mat_payphone_a_metallicRoughness.png"
    },
    {
      "uri": "textures/mat_payphone_a_normal.png"
    },
    {
      "uri": "textures/mat_payphone_b_baseColor.jpeg"
    },
    {
      "uri": "textures/mat_payphone_b_metallicRoughness.png"
    },
    {
      "uri": "textures/mat_payphone_b_normal.png"
    }
  ],
  "materials": [
    {
      "doubleSided": true,
      "name": "mat_payphone_a",
      "normalTexture": {
        "index": 2
      },
      "occlusionTexture": {
        "index": 1
      },
      "pbrMetallicRoughness": {
        "baseColorTexture": {
          "index": 0
        },
        "metallicFactor": 0.6114710365853658,
        "metallicRoughnessTexture": {
          "index": 1
        }
      }
    },
    {
      "doubleSided": true,
      "name": "mat_payphone_b",
      "normalTexture": {
        "index": 5
      },
      "pbrMetallicRoughness": {
        "baseColorTexture": {
          "index": 3
        },
        "metallicRoughnessTexture": {
          "index": 4
        }
      }
    }
  ],
  "meshes": [
    {
      "name": "defaultMaterial",
      "primitives": [
        {
          "attributes": {
            "COLOR_0": 3,
            "NORMAL": 1,
            "POSITION": 0,
            "TANGENT": 2,
            "TEXCOORD_0": 4
          },
          "indices": 5,
          "material": 0,
          "mode": 4
        }
      ]
    },
    {
      "name": "defaultMaterial",
      "primitives": [
        {
          "attributes": {
            "NORMAL": 7,
            "POSITION": 6,
            "TANGENT": 8,
            "TEXCOORD_0": 9
          },
          "indices": 10,
          "material": 0,
          "mode": 4
        }
      ]
    },
    {
      "name": "defaultMaterial",
      "primitives": [
        {
          "attributes": {
            "NORMAL": 12,
            "POSITION": 11,
            "TANGENT": 13,
            "TEXCOORD_0": 14
          },
          "indices": 15,
          "material": 1,
          "mode": 4
        }
      ]
    },
    {
      "name": "defaultMaterial",
      "primitives": [
        {
          "attributes": {
            "NORMAL": 17,
            "POSITION": 16,
            "TANGENT": 18,
            "TEXCOORD_0": 19
          },
          "indices": 20,
          "material": 0,
          "mode": 4
        }
      ]
    },
    {
      "name": "defaultMaterial",
      "primitives": [
        {
          "attributes": {
            "COLOR_0": 24,
            "NORMAL": 22,
            "POSITION": 21,
            "TANGENT": 23,
            "TEXCOORD_0": 25,
            "TEXCOORD_1": 26
          },
          "indices": 27,
          "material": 0,
          "mode": 4
        }
      ]
    }
  ],
  "nodes": [
    {
      "children": [
        1
      ],
      "matrix": [
        1.0,
        0.0,
        0.0,
        0.0,
        0.0,
        2.220446049250313e-16,
        -1.0,
        0.0,
        0.0,
        1.0,
        2.220446049250313e-16,
        0.0,
        0.0,
        0.0,
        0.0,
        1.0
      ],
      "name": "Sketchfab_model"
    },
    {
      "children": [
        2,
        4,
        6,
        8,
        10
      ],
      "matrix": [
        1.0,
        0.0,
        0.0,
        0.0,
        0.0,
        -4.371139006309477e-08,
        0.999999999999999,
        0.0,
        0.0,
        -0.999999999999999,
        -4.371139006309477e-08,
        0.0,
        0.0,
        0.0,
        0.0,
        1.0
      ],
      "name": "Collada visual scene group"
    },
    {
      "children": [
        3
      ],
      "name": "payphone_seg_02"
    },
    {
      "mesh": 0,
      "name": "defaultMaterial"
    },
    {
      "children": [
        5
      ],
      "name": "payphone_seg_04"
    },
    {
      "mesh": 1,
      "name": "defaultMaterial"
    },
    {
      "children": [
        7
      ],
      "name": "payphone_seg_05"
    },
    {
      "mesh": 2,
      "name": "defaultMaterial"
    },
    {
      "children": [
        9
      ],
      "name": "payphone_seg_03"
    },
    {
      "mesh": 3,
      "name": "defaultMaterial"
    },
    {
      "children": [
        11
      ],
      "name": "payphone_seg_01"
    },
    {
      "mesh": 4,
      "name": "defaultMaterial"
    }
  ],
  "samplers": [
    {
      "magFilter": 9729,
      "minFilter": 9987,
      "wrapS": 10497,
      "wrapT": 10497
    }
  ],
  "scene": 0,
  "scenes": [
    {
      "name": "Sketchfab_Scene",
      "nodes": [
        0
      ]
    }
  ],
  "textures": [
    {
      "sampler": 0,
      "source": 0
    },
    {
      "sampler": 0,
      "source": 1
    },
    {
      "sampler": 0,
      "source": 2
    },
    {
      "sampler": 0,
      "source": 3
    },
    {
      "sampler": 0,
      "source": 4
    },
    {
      "sampler": 0,
      "source": 5
    }
  ]
}
