{
  "accessors": [
    {
      "bufferView": 2,
      "componentType": 5126,
      "count": 5415,
      "max": [
        0.5945079922676086,
        1.0,
        0.5169619917869568
      ],
      "min": [
        -0.5945079922676086,
        -1.0,
        -0.4833590090274811
      ],
      "type": "VEC3"
    },
    {
      "bufferView": 2,
      "byteOffset": 64980,
      "componentType": 5126,
      "count": 5415,
      "max": [
        1.0,
        1.0,
        1.0
      ],
      "min": [
        -1.0,
        -1.0,
        -1.0
      ],
      "type": "VEC3"
    },
    {
      "bufferView": 3,
      "componentType": 5126,
      "count": 5415,
      "max": [
        1.0,
        1.0,
        1.0,
        1.0
      ],
      "min": [
        -1.0,
        -1.0,
        -1.0,
        -1.0
      ],
      "type": "VEC4"
    },
    {
      "bufferView": 1,
      "componentType": 5126,
      "count": 5415,
      "max": [
        0.9921879768371582,
        0.9928820133209229
      ],
      "min": [
        0.0078125,
        0.0078125
      ],
      "type": "VEC2"
    },
    {
      "bufferView": 0,
      "componentType": 5125,
      "count": 24654,
      "type": "SCALAR"
    },
    {
      "bufferView": 2,
      "byteOffset": 129960,
      "componentType": 5126,
      "count": 754,
      "max": [
        0.08588050305843353,
        0.6520230174064636,
        0.2849299907684326
      ],
      "min": [
        -0.08333060145378113,
        0.48020100593566895,
        0.2202260047197342
      ],
      "type": "VEC3"
    },
    {
      "bufferView": 2,
      "byteOffset": 139008,
      "componentType": 5126,
      "count": 754,
      "max": [
        1.0,
        1.0,
        1.0
      ],
      "min": [
        -1.0,
        -1.0,
        -1.0
      ],
      "type": "VEC3"
    },
    {
      "bufferView": 3,
      "byteOffset": 86640,
      "componentType": 5126,
      "count": 754,
      "max": [
        1.0,
        0.9999933242797852,
        0.9999895095825195,
        1.0
      ],
      "min": [
        -0.9575291275978088,
        -0.8337933421134949,
        -0.9997993111610413,
        1.0
      ],
      "type": "VEC4"
    },
    {
      "bufferView": 1,
      "byteOffset": 43320,
      "componentType": 5126,
      "count": 754,
      "max": [
        0.987185001373291,
        0.9921879768371582
      ],
      "min": [
        0.007812470197677612,
        0.0078125
      ],
      "type": "VEC2"
    },
    {
      "bufferView": 0,
      "byteOffset": 98616,
      "componentType": 5125,
      "count": 3312,
      "type": "SCALAR"
    },
    {
      "bufferView": 2,
      "byteOffset": 148056,
      "componentType": 5126,
      "count": 2523,
      "max": [
        0.515978991985321,
        0.17203499376773834,
        0.5269359946250916
      ],
      "min": [
        -0.5156840085983276,
        -0.8596280217170715,
        0.22868800163269043
      ],
      "type": "VEC3"
    },
    {
      "bufferView": 2,
      "byteOffset": 178332,
      "componentType": 5126,
      "count": 2523,
      "max": [
        1.0,
        1.0,
        1.0
      ],
      "min": [
        -1.0,
        -1.0,
        -1.0
      ],
      "type": "VEC3"
    },
    {
      "bufferView": 3,
      "byteOffset": 98704,
      "componentType": 5126,
      "count": 2523,
      "max": [
        0.9999997615814209,
        0.9999988079071045,
        1.0,
        1.0
      ],
      "min": [
        -0.8813579082489014,
        -0.999613881111145,
        -0.8453760147094727,
        1.0
      ],
      "type": "VEC4"
    },
    {
      "bufferView": 1,
      "byteOffset": 49352,
      "componentType": 5126,
      "count": 2523,
      "max": [
        0.9921879768371582,
        0.9874500036239624
      ],
      "min": [
        0.0078125,
        0.0078125
      ],
      "type": "VEC2"
    },
    {
      "bufferView": 0,
      "byteOffset": 111864,
      "componentType": 5125,
      "count": 11136,
      "type": "SCALAR"
    },
    {
      "bufferView": 2,
      "byteOffset": 208608,
      "componentType": 5126,
      "count": 624,
      "max": [
        0.5003079771995544,
        0.8966010212898254,
        -0.05993049964308739
      ],
      "min": [
        -0.5000119805335999,
        -0.9144160151481628,
        -0.4851340055465698
      ],
      "type": "VEC3"
    },
    {
      "bufferView": 2,
      "byteOffset": 216096,
      "componentType": 5126,
      "count": 624,
      "max": [
        1.0,
        1.0,
        0.6586639881134033
      ],
      "min": [
        -1.0,
        -1.0,
        -0.999560534954071
      ],
      "type": "VEC3"
    },
    {
      "bufferView": 3,
      "byteOffset": 139072,
      "componentType": 5126,
      "count": 624,
      "max": [
        0.8398553729057312,
        1.0,
        0.9999935626983643,
        1.0
      ],
      "min": [
        -1.0,
        -0.7092843055725098,
        -0.9999964237213135,
        1.0
      ],
      "type": "VEC4"
    },
    {
      "bufferView": 1,
      "byteOffset": 69536,
      "componentType": 5126,
      "count": 624,
      "max": [
        0.9921879768371582,
        0.9806830286979675
      ],
      "min": [
        0.0078125,
        0.0078125
      ],
      "type": "VEC2"
    },
    {
      "bufferView": 0,
      "byteOffset": 156408,
      "componentType": 5125,
      "count": 2628,
      "type": "SCALAR"
    },
    {
      "bufferView": 2,
      "byteOffset": 223584,
      "componentType": 5126,
      "count": 4025,
      "max": [
        0.4909749925136566,
        0.8742290139198303,
        -0.3797279894351959
      ],
      "min": [
        -0.4965049922466278,
        -0.8942980170249939,
        -0.5269359946250916
      ],
      "type": "VEC3"
    },
    {
      "bufferView": 2,
      "byteOffset": 271884,
      "componentType": 5126,
      "count": 4025,
      "max": [
        1.0,
        1.0,
        0.9957113862037659
      ],
      "min": [
        -1.0,
        -1.0,
        -1.0
      ],
      "type": "VEC3"
    },
    {
      "bufferView": 3,
      "byteOffset": 149056,
      "componentType": 5126,
      "count": 4025,
      "max": [
        0.9999997615814209,
        1.0,
        0.9999999403953552,
        1.0
      ],
      "min": [
        -1.0,
        -1.0,
        -1.0,
        -1.0
      ],
      "type": "VEC4"
    },
    {
      "bufferView": 1,
      "byteOffset": 74528,
      "componentType": 5126,
      "count": 4025,
      "max": [
        0.9901670217514038,
        0.9921879768371582
      ],
      "min": [
        0.0078125,
        0.0078125
      ],
      "type": "VEC2"
    },
    {
      "bufferView": 0,
      "byteOffset": 166920,
      "componentType": 5125,
      "count": 14664,
      "type": "SCALAR"
    }
  ],
  "asset": {
    "extras": {
      "author": "Maxim Lukyanov (https://sketchfab.com/Mad_Huron)",
      "license": "CC-BY-4.0 (http://creativecommons.org/licenses/by/4.0/)",
      "source": "https://sketchfab.com/3d-models/studio-monitor-jbl-lsr308-7ad5a7d350884a258a7326dfee5fbf8a",
      "title": "Studio Monitor JBL LSR308"
    },
    "generator": "Sketchfab-12.65.0",
    "version": "2.0"
  },
  "bufferViews": [
    {
      "buffer": 0,
      "byteLength": 225576,
      "name": "floatBufferViews",
      "target": 34963
    },
    {
      "buffer": 0,
      "byteLength": 106728,
      "byteOffset": 225576,
      "byteStride": 8,
      "name": "floatBufferViews",
      "target": 34962
    },
    {
      "buffer": 0,
      "byteLength": 320184,
      "byteOffset": 332304,
      "byteStride": 12,
      "name": "floatBufferViews",
      "target": 34962
    },
    {
      "buffer": 0,
      "byteLength": 213456,
      "byteOffset": 652488,
      "byteStride": 16,
      "name": "floatBufferViews",
      "target": 34962
    }
  ],
  "buffers": [
    {
      "byteLength": 865944,
      "uri": "scene.bin"
    }
  ],
  "images": [
    {
      "uri": "textures/other_baseColor.png"
    },
    {
      "uri": "textures/other_metallicRoughness.png"
    },
    {
      "uri": "textures/other_normal.png"
    },
    {
      "uri": "textures/tonel_baseColor.png"
    },
    {
      "uri": "textures/tonel_metallicRoughness.png"
    },
    {
      "uri": "textures/tonel_normal.png"
    },
    {
      "uri": "textures/midhz_baseColor.png"
    },
    {
      "uri": "textures/midhz_metallicRoughness.png"
    },
    {
      "uri": "textures/midhz_normal.png"
    },
    {
      "uri": "textures/highhz_baseColor.png"
    },
    {
      "uri": "textures/highhz_metallicRoughness.png"
    },
    {
      "uri": "textures/highhz_normal.png"
    },
    {
      "uri": "textures/case1_baseColor.png"
    },
    {
      "uri": "textures/case1_metallicRoughness.png"
    },
    {
      "uri": "textures/case1_emissive.jpeg"
    },
    {
      "uri": "textures/case1_normal.png"
    }
  ],
  "materials": [
    {
      "alphaMode": "BLEND",
      "doubleSided": true,
      "name": "other",
      "normalTexture": {
        "index": 2
      },
      "occlusionTexture": {
        "index": 1
      },
      "pbrMetallicRoughness": {
        "baseColorTexture": {
          "index": 0
        },
        "metallicRoughnessTexture": {
          "index": 1
        }
      }
    },
    {
      "alphaMode": "BLEND",
      "doubleSided": true,
      "name": "tonel",
      "normalTexture": {
        "index": 5
      },
      "occlusionTexture": {
        "index": 4
      },
      "pbrMetallicRoughness": {
        "baseColorTexture": {
          "index": 3
        },
        "metallicRoughnessTexture": {
          "index": 4
        }
      }
    },
    {
      "alphaMode": "BLEND",
      "doubleSided": true,
      "name": "midhz",
      "normalTexture": {
        "index": 8
      },
      "occlusionTexture": {
        "index": 7
      },
      "pbrMetallicRoughness": {
        "baseColorTexture": {
          "index": 6
        },
        "metallicRoughnessTexture": {
          "index": 7
        }
      }
    },
    {
      "alphaMode": "BLEND",
      "doubleSided": true,
      "name": "highhz",
      "normalTexture": {
        "index": 11
      },
      "occlusionTexture": {
        "index": 10
      },
      "pbrMetallicRoughness": {
        "baseColorTexture": {
          "index": 9
        },
        "metallicRoughnessTexture": {
          "index": 10
        }
      }
    },
    {
      "alphaMode": "BLEND",
      "doubleSided": true,
      "emissiveFactor": [
        1.0,
        1.0,
        1.0
      ],
      "emissiveTexture": {
        "index": 14
      },
      "name": "case1",
      "normalTexture": {
        "index": 15
      },
      "occlusionTexture": {
        "index": 13
      },
      "pbrMetallicRoughness": {
        "baseColorTexture": {
          "index": 12
        },
        "metallicRoughnessTexture": {
          "index": 13
        }
      }
    }
  ],
  "meshes": [
    {
      "name": "defaultMaterial",
      "primitives": [
        {
          "attributes": {
            "NORMAL": 1,
            "POSITION": 0,
            "TANGENT": 2,
            "TEXCOORD_0": 3
          },
          "indices": 4,
          "material": 4,
          "mode": 4
        }
      ]
    },
    {
      "name": "defaultMaterial",
      "primitives": [
        {
          "attributes": {
            "NORMAL": 6,
            "POSITION": 5,
            "TANGENT": 7,
            "TEXCOORD_0": 8
          },
          "indices": 9,
          "material": 3,
          "mode": 4
        }
      ]
    },
    {
      "name": "defaultMaterial",
      "primitives": [
        {
          "attributes": {
            "NORMAL": 11,
            "POSITION": 10,
            "TANGENT": 12,
            "TEXCOORD_0": 13
          },
          "indices": 14,
          "material": 2,
          "mode": 4
        }
      ]
    },
    {
      "name": "defaultMaterial",
      "primitives": [
        {
          "attributes": {
            "NORMAL": 16,
            "POSITION": 15,
            "TANGENT": 17,
            "TEXCOORD_0": 18
          },
          "indices": 19,
          "material": 1,
          "mode": 4
        }
      ]
    },
    {
      "name": "defaultMaterial",
      "primitives": [
        {
          "attributes": {
            "NORMAL": 21,
            "POSITION": 20,
            "TANGENT": 22,
            "TEXCOORD_0": 23
          },
          "indices": 24,
          "material": 0,
          "mode": 4
        }
      ]
    }
  ],
  "nodes": [
    {
      "children": [
        1
      ],
      "matrix": [
        0.2779915928840637,
        0.0,
        0.0,
        0.0,
        0.0,
        6.172653341442207e-17,
        -0.2779915928840637,
        0.0,
        0.0,
        0.2779915928840637,
        6.172653341442207e-17,
        0.0,
        0.0,
        0.0,
        0.0,
        1.0
      ],
      "name": "Sketchfab_model"
    },
    {
      "children": [
        2,
        4,
        6,
        8,
        10
      ],
      "matrix": [
        1.0,
        0.0,
        0.0,
        0.0,
        0.0,
        -4.371139006309477e-08,
        0.999999999999999,
        0.0,
        0.0,
        -0.999999999999999,
        -4.371139006309477e-08,
        0.0,
        0.0,
        0.0,
        0.0,
        1.0
      ],
      "name": "Collada visual scene group"
    },
    {
      "children": [
        3
      ],
      "name": "Case"
    },
    {
      "mesh": 0,
      "name": "defaultMaterial"
    },
    {
      "children": [
        5
      ],
      "name": "HighHz"
    },
    {
      "mesh": 1,
      "name": "defaultMaterial"
    },
    {
      "children": [
        7
      ],
      "name": "MidHz"
    },
    {
      "mesh": 2,
      "name": "defaultMaterial"
    },
    {
      "children": [
        9
      ],
      "name": "Tonel"
    },
    {
      "mesh": 3,
      "name": "defaultMaterial"
    },
    {
      "children": [
        11
      ],
      "name": "Other"
    },
    {
      "mesh": 4,
      "name": "defaultMaterial"
    }
  ],
  "samplers": [
    {
      "magFilter": 9729,
      "minFilter": 9987,
      "wrapS": 10497,
      "wrapT": 10497
    }
  ],
  "scene": 0,
  "scenes": [
    {
      "name": "Sketchfab_Scene",
      "nodes": [
        0
      ]
    }
  ],
  "textures": [
    {
      "sampler": 0,
      "source": 0
    },
    {
      "sampler": 0,
      "source": 1
    },
    {
      "sampler": 0,
      "source": 2
    },
    {
      "sampler": 0,
      "source": 3
    },
    {
      "sampler": 0,
      "source": 4
    },
    {
      "sampler": 0,
      "source": 5
    },
    {
      "sampler": 0,
      "source": 6
    },
    {
      "sampler": 0,
      "source": 7
    },
    {
      "sampler": 0,
      "source": 8
    },
    {
      "sampler": 0,
      "source": 9
    },
    {
      "sampler": 0,
      "source": 10
    },
    {
      "sampler": 0,
      "source": 11
    },
    {
      "sampler": 0,
      "source": 12
    },
    {
      "sampler": 0,
      "source": 13
    },
    {
      "sampler": 0,
      "source": 14
    },
    {
      "sampler": 0,
      "source": 15
    }
  ]
}
